<svg width="111" height="117" viewBox="0 0 111 117" fill="none" xmlns="http://www.w3.org/2000/svg">
<circle cx="50" cy="57" r="50" fill="#494949"/>
<path d="M54.2275 60.9619V85H42.6699V27.4316H54.2275V50.9424H59.2812L74.5303 27.4316H88.6367L69.2568 54.2383L90.1748 85H76.1123L60.6436 60.9619H54.2275Z" fill="#57A773"/>
<path d="M33.0547 77.1777H33.1426C36.248 77.1777 38.6357 76.5479 40.3057 75.2881C42.0049 73.999 42.8545 72.2559 42.8545 70.0586C42.8545 67.832 42.0781 66.0596 40.5254 64.7412C39.002 63.3936 36.248 62.1191 32.2637 60.918C25.0273 58.8379 19.7393 56.4355 16.3994 53.7109C13.0889 50.957 11.4336 47.2656 11.4336 42.6367C11.4336 37.9785 13.4404 34.1553 17.4541 31.167C21.4678 28.1787 26.6094 26.6846 32.8789 26.6846C39.1777 26.6846 44.3193 28.3545 48.3037 31.6943C52.2881 35.0049 54.207 39.165 54.0605 44.1748L54.0166 44.3945H42.8105C42.8105 41.6699 41.9023 39.502 40.0859 37.8906C38.2988 36.2793 35.8525 35.4736 32.7471 35.4736C29.6416 35.4736 27.2246 36.1475 25.4961 37.4951C23.7969 38.8135 22.9473 40.5127 22.9473 42.5928C22.9473 44.6436 23.8115 46.2988 25.54 47.5586C27.2979 48.7891 30.4619 50.1221 35.0322 51.5576C41.5654 53.374 46.4141 55.7471 49.5781 58.6768C52.7715 61.5771 54.3682 65.415 54.3682 70.1904C54.3682 74.9658 52.4346 78.7891 48.5674 81.6602C44.7295 84.502 39.5732 85.9229 33.0986 85.9229C28.8506 85.9229 24.9688 85.2197 21.4531 83.8135C17.9375 82.3779 15.1104 80.2393 12.9717 77.3975C10.833 74.5557 9.79297 71.2598 9.85156 67.5098L9.93945 67.2461H21.1455C21.1455 73.8672 25.1152 77.1777 33.0547 77.1777Z" fill="#9BD1E5"/>
<g clip-path="url(#clip0_302_829)">
<path d="M33.0547 77.1777H33.1426C36.248 77.1777 38.6357 76.5479 40.3057 75.2881C42.0049 73.999 42.8545 72.2559 42.8545 70.0586C42.8545 67.832 42.0781 66.0596 40.5254 64.7412C39.002 63.3936 36.248 62.1191 32.2637 60.918C25.0273 58.8379 19.7393 56.4355 16.3994 53.7109C13.0889 50.957 11.4336 47.2656 11.4336 42.6367C11.4336 37.9785 13.4404 34.1553 17.4541 31.167C21.4678 28.1787 26.6094 26.6846 32.8789 26.6846C39.1777 26.6846 44.3193 28.3545 48.3037 31.6943C52.2881 35.0049 54.207 39.165 54.0605 44.1748L54.0166 44.3945H42.8105C42.8105 41.6699 41.9023 39.502 40.0859 37.8906C38.2988 36.2793 35.8525 35.4736 32.7471 35.4736C29.6416 35.4736 27.2246 36.1475 25.4961 37.4951C23.7969 38.8135 22.9473 40.5127 22.9473 42.5928C22.9473 44.6436 23.8115 46.2988 25.54 47.5586C27.2979 48.7891 30.4619 50.1221 35.0322 51.5576C41.5654 53.374 46.4141 55.7471 49.5781 58.6768C52.7715 61.5771 54.3682 65.415 54.3682 70.1904C54.3682 74.9658 52.4346 78.7891 48.5674 81.6602C44.7295 84.502 39.5732 85.9229 33.0986 85.9229C28.8506 85.9229 24.9688 85.2197 21.4531 83.8135C17.9375 82.3779 15.1104 80.2393 12.9717 77.3975C10.833 74.5557 9.79297 71.2598 9.85156 67.5098L9.93945 67.2461H21.1455C21.1455 73.8672 25.1152 77.1777 33.0547 77.1777Z" fill="#6A8EAE"/>
</g>
<defs>
<clipPath id="clip0_302_829">
<rect width="15" height="117" fill="white" transform="translate(43)"/>
</clipPath>
</defs>
</svg>
